<svg width="112" height="32" viewBox="0 0 112 32" fill="none" xmlns="http://www.w3.org/2000/svg">
<path d="M15.599 0C19.9089 0 22.0649 0 23.7991 0.596295C26.9935 1.69559 29.5044 4.20651 30.6037 7.40095C31.2 9.13507 31.2 11.2911 31.2 15.599C31.2 19.9069 31.2 22.0629 30.6037 23.7991C29.5044 26.9935 26.9935 29.5044 23.7991 30.6037C22.0649 31.2 19.9089 31.2 15.599 31.2C11.289 31.2 9.13507 31.2 7.40095 30.6037C4.20651 29.5044 1.69559 26.9935 0.596295 23.7991C0 22.0649 0 19.9089 0 15.599C0 11.2911 0 9.13507 0.596295 7.40095C1.69559 4.20651 4.20651 1.69559 7.40095 0.596295C9.13507 0 11.2911 0 15.599 0Z" fill="#FF5630"/>
<path d="M14.4855 12.1835C14.4855 12.1835 14.4814 12.1774 14.4794 12.1794H14.4835V12.1835H14.4855Z" fill="#6B6B6B"/>
<path d="M25.3831 9.78613C25.2634 8.88357 24.7483 8.14327 23.9715 7.75386C23.1946 7.36444 22.2941 7.39689 21.5011 7.84107C21.207 8.00536 20.8886 8.2244 20.5803 8.43736C20.4647 8.51646 20.3511 8.59557 20.2436 8.66655C19.4526 9.19794 18.6575 9.74962 17.8868 10.2871L17.3311 10.6745C17.0127 10.8956 16.7003 11.1207 16.3839 11.3479C16.104 11.5486 15.8261 11.7515 15.5422 11.9502C15.53 11.9583 15.5158 11.9583 15.5057 11.9502C14.5565 11.1673 13.5343 10.4575 12.5425 9.7699L12.2565 9.57114C12.0314 9.41294 11.8022 9.25068 11.571 9.08437C11.0456 8.70915 10.5021 8.32176 9.9707 7.99116C9.11885 7.45977 8.1737 7.34213 7.37255 7.66867C6.62212 7.97696 6.0887 8.63816 5.87168 9.5326L5.86356 9.59345C5.80475 11.7515 5.81286 13.946 5.82097 16.0695C5.82706 17.4142 5.83111 17.3798 5.82097 18.7427V18.7792C5.9021 19.5114 5.87371 16.4934 5.84531 17.2641C5.81894 17.9902 5.79055 18.7427 5.85342 19.4506C5.87979 19.7507 6.02177 19.986 6.24284 20.0894C6.62009 20.2679 6.88781 20.059 7.04804 19.9353L7.09266 19.9008C7.39284 19.6737 8.11082 19.0713 8.35015 18.7792C8.52255 18.5663 8.61788 18.3452 8.65439 18.0572V18.0531L8.65844 10.642C8.65844 10.6177 8.68481 10.6035 8.70509 10.6157C10.3155 11.5831 11.9259 12.654 13.37 13.6215C13.3862 13.6316 13.3882 13.6539 13.374 13.6681C12.8873 14.1407 12.4269 14.6173 12.0151 15.2075C10.1857 17.8462 10.4696 20.921 12.7047 22.6774C14.2969 23.9268 16.3352 24.0607 18.0308 23.0263C19.8603 21.9088 20.773 19.8096 20.3592 17.6799C20.2477 17.108 20.0367 16.5421 19.7244 15.9843C19.7163 15.9701 19.698 15.9641 19.6818 15.9722L17.3798 17.2439C17.3656 17.252 17.3595 17.2682 17.3676 17.2844C17.4649 17.471 17.5481 17.6759 17.6231 17.9071C18.0957 19.3694 17.3554 20.4322 16.4143 20.8379C15.5463 21.209 14.3922 21.063 13.7594 19.9008C12.8142 18.1667 14.2746 16.465 15.2299 15.6051C15.309 15.5341 15.4935 15.3799 15.6335 15.2724L17.8037 13.6641C18.2296 13.3862 18.6514 13.1002 19.0611 12.8224C19.4607 12.5506 19.8765 12.2707 20.2842 12.003C20.4667 11.8853 20.6553 11.7616 20.8439 11.6338C21.351 11.2971 21.8783 10.9483 22.3712 10.6643C22.3915 10.6542 22.4138 10.642 22.4381 10.6238C22.4645 10.6096 22.5091 10.5812 22.5517 10.5589C22.5963 11.1673 22.576 11.859 22.5598 12.5303C22.5497 12.9299 22.5375 13.3456 22.5416 13.7249C22.5659 16.9741 22.5902 14.9134 22.5801 18.047V18.0795L22.5862 18.1119C22.6044 18.2093 22.6369 18.3371 22.6916 18.4669C22.8823 18.9232 23.9938 19.7954 24.0404 19.8298C24.2392 19.984 24.4562 20.1564 24.7158 20.1564C24.7523 20.1564 24.7868 20.1523 24.8233 20.1462C25.02 20.1097 25.1823 19.9799 25.3222 19.7507L25.3648 19.6797L25.379 9.82263V9.7841L25.3831 9.78613ZM22.5578 16.7875V18.5602C22.5578 18.8279 22.6856 19.0814 22.9026 19.2396L24.5677 20.4606C24.9065 20.7081 25.3851 20.4708 25.3851 20.0529V15.7612C25.3851 15.741 25.3648 15.7247 25.3446 15.7328L22.5781 16.7591C22.5659 16.7632 22.5578 16.7753 22.5578 16.7875ZM5.81489 15.7146V20.0387C5.81489 20.4809 6.31788 20.7324 6.67282 20.4708L8.3177 19.2518C8.53269 19.0916 8.66047 18.8401 8.66047 18.5703V16.7591C8.66047 16.747 8.65236 16.7348 8.64019 16.7307L5.85545 15.6862C5.83517 15.6781 5.81489 15.6943 5.81489 15.7146Z" fill="white"/>
<path d="M15.5219 11.9584L13.4024 13.6397L10.6157 11.8022L12.9258 10.0295C12.9258 10.0295 15.2441 11.648 15.5219 11.9563V11.9584Z" fill="url(#paint0_linear_1109_107371)"/>
<path d="M19.7102 15.958L17.3554 17.2581C17.037 16.6476 16.6111 16.2318 16.104 15.7329C15.9519 15.5868 15.7957 15.4347 15.6396 15.2725L17.8097 13.6641C18.6373 14.4084 19.2721 15.1751 19.7122 15.958H19.7102Z" fill="url(#paint1_linear_1109_107371)"/>
<path d="M22.5578 10.5589V18.4446C22.5578 18.7427 22.8012 18.9861 23.0993 18.9861H23.2291C23.3691 18.9861 23.4847 18.8746 23.4887 18.7326L23.6287 12.9258C23.6287 12.9055 23.6287 12.8852 23.6226 12.865L23.1379 10.6299C23.1115 10.5102 23.006 10.425 22.8843 10.425H22.5578V10.5589Z" fill="white"/>
<path d="M38.191 24.8639V6.49835H41.1349L47.8827 21.686H47.0755L53.8233 6.49835H56.7399V24.8639H53.6926V11.2399H54.6304L48.4559 24.8639H46.4497L40.2751 11.2399H41.2382V24.8639H38.191Z" fill="white"/>
<path d="M59.3446 8.07465V7.21274C59.3446 6.57211 59.863 6.0537 60.5036 6.0537H61.808C62.4487 6.0537 62.9671 6.57211 62.9671 7.21274V8.07465C62.9671 8.71528 62.4487 9.23369 61.808 9.23369H60.5036C59.863 9.23369 59.3446 8.71528 59.3446 8.07465ZM59.5258 24.8639V11.7098H62.7816V24.8639H59.5258Z" fill="white"/>
<path d="M65.2831 24.8639V14.991C65.2831 14.4536 65.2662 13.9057 65.2304 13.3494C65.1946 12.793 65.144 12.2472 65.0744 11.7077H68.227L68.4884 14.3124H68.1765C68.5937 13.3915 69.2091 12.6834 70.0267 12.1903C70.8423 11.6951 71.7885 11.4485 72.8653 11.4485C74.41 11.4485 75.5754 11.8826 76.3551 12.7509C77.1369 13.6191 77.5268 14.9741 77.5268 16.8138V24.8639H74.2709V16.9719C74.2709 15.9119 74.0665 15.1532 73.6598 14.6917C73.251 14.2323 72.6398 14.0005 71.8243 14.0005C70.817 14.0005 70.0183 14.3124 69.4282 14.9383C68.8382 15.5642 68.5431 16.3966 68.5431 17.4397V24.8639H65.2873H65.2831Z" fill="white"/>
<path d="M79.9481 24.8639V14.991C79.9481 14.4536 79.9313 13.9057 79.8954 13.3494C79.8596 12.793 79.809 12.2472 79.7395 11.7077H82.8921L83.1534 14.3124H82.8415C83.2588 13.3915 83.8741 12.6834 84.6918 12.1903C85.5073 11.6951 86.4535 11.4485 87.5304 11.4485C89.0751 11.4485 90.2404 11.8826 91.0201 12.7509C91.802 13.6191 92.1918 14.9741 92.1918 16.8138V24.8639H88.936V16.9719C88.936 15.9119 88.7316 15.1532 88.3249 14.6917C87.916 14.2323 87.3049 14.0005 86.4893 14.0005C85.482 14.0005 84.6833 14.3124 84.0933 14.9383C83.5032 15.5642 83.2082 16.3966 83.2082 17.4397V24.8639H79.9523H79.9481Z" fill="white"/>
<path d="M100.554 25.1231C99.1988 25.1231 98.0271 24.845 97.0366 24.2886C96.0462 23.7323 95.2791 22.942 94.7312 21.9178C94.1833 20.8937 93.9114 19.6777 93.9114 18.27C93.9114 16.8623 94.1854 15.6527 94.7312 14.6369C95.2791 13.6212 96.0462 12.8352 97.0366 12.2788C98.0271 11.7225 99.1988 11.4443 100.554 11.4443C101.909 11.4443 103.085 11.7225 104.084 12.2788C105.083 12.8352 105.856 13.6212 106.402 14.6369C106.95 15.6527 107.221 16.8644 107.221 18.27C107.221 19.6756 106.948 20.8916 106.402 21.9178C105.854 22.942 105.083 23.7323 104.084 24.2886C103.085 24.845 101.909 25.1231 100.554 25.1231ZM100.554 22.6238C101.578 22.6238 102.394 22.2634 103.003 21.5427C103.609 20.822 103.915 19.7325 103.915 18.2742C103.915 16.8159 103.612 15.7307 103.003 15.0184C102.394 14.3061 101.578 13.9499 100.554 13.9499C99.5296 13.9499 98.712 14.3061 98.1051 15.0184C97.496 15.7307 97.1926 16.8159 97.1926 18.2742C97.1926 19.7325 97.496 20.822 98.1051 21.5427C98.712 22.2634 99.5296 22.6238 100.554 22.6238Z" fill="white"/>
<path d="M112.001 23.216V23.2392C112.001 23.5047 111.952 23.7533 111.856 23.9852C111.759 24.217 111.622 24.4214 111.449 24.5942C111.276 24.767 111.074 24.904 110.842 25.0009C110.61 25.0978 110.361 25.1463 110.096 25.1463H110.073C109.805 25.1463 109.556 25.0978 109.325 25.0009C109.093 24.904 108.891 24.767 108.716 24.5942C108.541 24.4214 108.406 24.217 108.309 23.9852C108.212 23.7533 108.163 23.5047 108.163 23.2392V23.216C108.163 22.9483 108.212 22.6997 108.309 22.47C108.406 22.2403 108.541 22.038 108.716 21.8631C108.891 21.6881 109.093 21.5533 109.325 21.4563C109.556 21.3594 109.805 21.3109 110.073 21.3109H110.096C110.361 21.3109 110.61 21.3594 110.842 21.4563C111.074 21.5533 111.276 21.6881 111.449 21.8631C111.622 22.038 111.759 22.2403 111.856 22.47C111.952 22.6997 112.001 22.9483 112.001 23.216ZM111.548 23.216C111.548 22.9441 111.483 22.6976 111.354 22.4784C111.225 22.2592 111.051 22.0843 110.831 21.9537C110.612 21.8251 110.368 21.7598 110.094 21.7598H110.071C109.799 21.7598 109.552 21.8251 109.331 21.9537C109.11 22.0822 108.935 22.2571 108.806 22.4784C108.678 22.6976 108.612 22.9441 108.612 23.216V23.2392C108.612 23.511 108.678 23.7576 108.806 23.9767C108.935 24.1959 109.112 24.3708 109.331 24.5015C109.55 24.6321 109.799 24.6953 110.071 24.6953H110.094C110.366 24.6953 110.612 24.63 110.831 24.5015C111.051 24.3729 111.223 24.198 111.354 23.9767C111.483 23.7576 111.548 23.511 111.548 23.2392V23.216ZM109.282 24.1959V22.2592H110.168C110.416 22.2592 110.61 22.3161 110.745 22.4299C110.88 22.5437 110.947 22.7081 110.947 22.9273V22.9315C110.947 23.0495 110.916 23.1591 110.852 23.2602C110.789 23.3614 110.705 23.4351 110.602 23.4794L111.006 24.198H110.41L110.066 23.5658H109.816V24.198H109.285L109.282 24.1959ZM109.814 23.1591H110.109C110.199 23.1591 110.271 23.138 110.326 23.0937C110.378 23.0495 110.406 22.9926 110.406 22.9252C110.406 22.8577 110.378 22.7987 110.324 22.7545C110.269 22.7123 110.197 22.6891 110.106 22.6891H109.814V23.1591Z" fill="white"/>
<defs>
<linearGradient id="paint0_linear_1109_107371" x1="18.2803" y1="16.6516" x2="13.0597" y2="11.8711" gradientUnits="userSpaceOnUse">
<stop stop-color="#FF5630"/>
<stop offset="1" stop-color="white"/>
</linearGradient>
<linearGradient id="paint1_linear_1109_107371" x1="14.1569" y1="10.4879" x2="17.8381" y2="15.8302" gradientUnits="userSpaceOnUse">
<stop stop-color="#FF5630"/>
<stop offset="1" stop-color="white"/>
</linearGradient>
</defs>
</svg>
