<svg width="32" height="32" viewBox="0 0 32 32" fill="none" xmlns="http://www.w3.org/2000/svg">
<path d="M15.599 0.400002C19.9089 0.400002 22.0649 0.400002 23.7991 0.996296C26.9935 2.09559 29.5044 4.60652 30.6037 7.80095C31.2 9.53507 31.2 11.6911 31.2 15.999C31.2 20.3069 31.2 22.4629 30.6037 24.1991C29.5044 27.3935 26.9935 29.9044 23.7991 31.0037C22.0649 31.6 19.9089 31.6 15.599 31.6C11.289 31.6 9.13507 31.6 7.40095 31.0037C4.20651 29.9044 1.69559 27.3935 0.596295 24.1991C0 22.4649 0 20.3089 0 15.999C0 11.6911 0 9.53507 0.596295 7.80095C1.69559 4.60652 4.20651 2.09559 7.40095 0.996296C9.13507 0.400002 11.2911 0.400002 15.599 0.400002Z" fill="#FF5630"/>
<path d="M14.4855 12.5835C14.4855 12.5835 14.4814 12.5774 14.4794 12.5794H14.4835V12.5835H14.4855Z" fill="#6B6B6B"/>
<path d="M25.3831 10.1861C25.2634 9.28357 24.7482 8.54328 23.9714 8.15386C23.1946 7.76444 22.2941 7.79689 21.5011 8.24107C21.207 8.40536 20.8886 8.6244 20.5803 8.83737C20.4647 8.91647 20.3511 8.99557 20.2436 9.06655C19.4526 9.59795 18.6575 10.1496 17.8868 10.6871L17.3311 11.0745C17.0126 11.2956 16.7003 11.5207 16.3839 11.7479C16.104 11.9486 15.8261 12.1515 15.5422 12.3502C15.53 12.3583 15.5158 12.3583 15.5057 12.3502C14.5565 11.5673 13.5343 10.8575 12.5425 10.1699L12.2565 9.97114C12.0314 9.81294 11.8022 9.65068 11.5709 9.48437C11.0456 9.10915 10.5021 8.72176 9.97069 8.39116C9.11884 7.85977 8.17369 7.74213 7.37255 8.06867C6.62211 8.37696 6.08869 9.03816 5.87167 9.9326L5.86356 9.99345C5.80474 12.1515 5.81285 14.346 5.82097 16.4695C5.82705 17.8142 5.83111 17.7798 5.82097 19.1427V19.1792C5.90209 19.9114 5.8737 16.8934 5.8453 17.6641C5.81894 18.3903 5.79054 19.1427 5.85342 19.8506C5.87978 20.1507 6.02176 20.386 6.24283 20.4895C6.62008 20.6679 6.8878 20.459 7.04803 20.3353L7.09265 20.3008C7.39283 20.0737 8.11082 19.4713 8.35015 19.1792C8.52254 18.9663 8.61787 18.7452 8.65438 18.4572V18.4531L8.65843 11.042C8.65843 11.0177 8.6848 11.0035 8.70508 11.0157C10.3155 11.9831 11.9259 13.054 13.37 14.0215C13.3862 14.0316 13.3882 14.0539 13.374 14.0681C12.8873 14.5407 12.4269 15.0173 12.0151 15.6075C10.1857 18.2462 10.4696 21.321 12.7047 23.0774C14.2969 24.3268 16.3352 24.4607 18.0308 23.4263C19.8603 22.3088 20.773 20.2096 20.3592 18.0799C20.2476 17.508 20.0367 16.9421 19.7244 16.3843C19.7163 16.3701 19.698 16.3641 19.6818 16.3722L17.3798 17.6439C17.3656 17.652 17.3595 17.6682 17.3676 17.6844C17.4649 17.871 17.5481 18.0759 17.6231 18.3071C18.0957 19.7694 17.3554 20.8322 16.4143 21.2379C15.5462 21.609 14.3922 21.463 13.7594 20.3008C12.8142 18.5667 14.2746 16.865 15.2298 16.0051C15.3089 15.9341 15.4935 15.7799 15.6335 15.6724L17.8036 14.0641C18.2296 13.7862 18.6514 13.5002 19.0611 13.2224C19.4607 12.9506 19.8765 12.6707 20.2842 12.403C20.4667 12.2853 20.6553 12.1616 20.8439 12.0338C21.351 11.6971 21.8783 11.3483 22.3712 11.0643C22.3915 11.0542 22.4138 11.042 22.4381 11.0238C22.4645 11.0096 22.5091 10.9812 22.5517 10.9589C22.5963 11.5673 22.576 12.259 22.5598 12.9303C22.5497 13.3299 22.5375 13.7456 22.5416 14.1249C22.5659 17.3741 22.5902 15.3135 22.5801 18.447V18.4795L22.5862 18.5119C22.6044 18.6093 22.6369 18.7371 22.6916 18.8669C22.8823 19.3232 23.9938 20.1954 24.0404 20.2298C24.2392 20.384 24.4562 20.5564 24.7158 20.5564C24.7523 20.5564 24.7868 20.5523 24.8233 20.5462C25.02 20.5097 25.1823 20.3799 25.3222 20.1507L25.3648 20.0798L25.379 10.2226V10.1841L25.3831 10.1861ZM22.5578 17.1875V18.9602C22.5578 19.2279 22.6856 19.4814 22.9026 19.6396L24.5677 20.8606C24.9064 21.1081 25.3851 20.8708 25.3851 20.4529V16.1612C25.3851 16.141 25.3648 16.1247 25.3445 16.1328L22.5781 17.1591C22.5659 17.1632 22.5578 17.1753 22.5578 17.1875ZM5.81488 16.1146V20.4387C5.81488 20.8809 6.31788 21.1324 6.67281 20.8708L8.31769 19.6518C8.53269 19.4916 8.66046 19.2401 8.66046 18.9703V17.1591C8.66046 17.147 8.65235 17.1348 8.64018 17.1307L5.85544 16.0862C5.83516 16.0781 5.81488 16.0943 5.81488 16.1146Z" fill="white"/>
<path d="M15.5219 12.3584L13.4024 14.0397L10.6157 12.2022L12.9258 10.4295C12.9258 10.4295 15.2441 12.048 15.5219 12.3563V12.3584Z" fill="url(#paint0_linear_1109_107409)"/>
<path d="M19.7102 16.358L17.3554 17.6581C17.037 17.0476 16.6111 16.6318 16.104 16.1329C15.9519 15.9868 15.7957 15.8347 15.6396 15.6725L17.8097 14.0641C18.6373 14.8084 19.2721 15.5751 19.7122 16.358H19.7102Z" fill="url(#paint1_linear_1109_107409)"/>
<path d="M22.5578 10.9589V18.8446C22.5578 19.1427 22.8012 19.3861 23.0993 19.3861H23.2291C23.3691 19.3861 23.4847 19.2746 23.4887 19.1326L23.6287 13.3258C23.6287 13.3055 23.6287 13.2852 23.6226 13.265L23.1379 11.0299C23.1115 10.9102 23.006 10.825 22.8843 10.825H22.5578V10.9589Z" fill="white"/>
<defs>
<linearGradient id="paint0_linear_1109_107409" x1="18.2803" y1="17.0516" x2="13.0597" y2="12.2711" gradientUnits="userSpaceOnUse">
<stop stop-color="#FF5630"/>
<stop offset="1" stop-color="white"/>
</linearGradient>
<linearGradient id="paint1_linear_1109_107409" x1="14.1569" y1="10.8879" x2="17.8381" y2="16.2302" gradientUnits="userSpaceOnUse">
<stop stop-color="#FF5630"/>
<stop offset="1" stop-color="white"/>
</linearGradient>
</defs>
</svg>
